<?xml version="1.0" encoding="UTF-8" standalone="no"?>
<svg
   xmlns:dc="http://purl.org/dc/elements/1.1/"
   xmlns:cc="http://creativecommons.org/ns#"
   xmlns:rdf="http://www.w3.org/1999/02/22-rdf-syntax-ns#"
   xmlns:svg="http://www.w3.org/2000/svg"
   xmlns="http://www.w3.org/2000/svg"
   xmlns:sodipodi="http://sodipodi.sourceforge.net/DTD/sodipodi-0.dtd"
   xmlns:inkscape="http://www.inkscape.org/namespaces/inkscape"
   width="23.457626"
   height="23.457626"
   viewBox="0 0 23.457626 23.457626"
   version="1.1"
   id="svg6"
   sodipodi:docname="baseline-help_outline.svg"
   inkscape:version="0.92.3 (2405546, 2018-03-11)">
  <metadata
     id="metadata12">
    <rdf:RDF>
      <cc:Work
         rdf:about="">
        <dc:format>image/svg+xml</dc:format>
        <dc:type
           rdf:resource="http://purl.org/dc/dcmitype/StillImage" />
        <dc:title></dc:title>
      </cc:Work>
    </rdf:RDF>
  </metadata>
  <defs
     id="defs10" />
  <sodipodi:namedview
     pagecolor="#ffffff"
     bordercolor="#666666"
     borderopacity="1"
     objecttolerance="10"
     gridtolerance="10"
     guidetolerance="10"
     inkscape:pageopacity="0"
     inkscape:pageshadow="2"
     inkscape:window-width="1366"
     inkscape:window-height="745"
     id="namedview8"
     showgrid="false"
     inkscape:zoom="9.8333333"
     inkscape:cx="10"
     inkscape:cy="10"
     inkscape:window-x="-8"
     inkscape:window-y="-8"
     inkscape:window-maximized="1"
     inkscape:current-layer="svg6" />
  <path
     d="M -2,1.4576271 H 22 V 25.457627 H -2 Z"
     id="path2"
     inkscape:connector-curvature="0"
     style="fill:none" />
  <path
     d="m 10.555932,18.766102 h 2.345763 V 16.420339 H 10.555932 Z M 11.728814,0 C 5.2545085,0 0,5.2545085 0,11.728813 c 0,6.474306 5.2545085,11.728814 11.728814,11.728814 6.474305,0 11.728813,-5.254508 11.728813,-11.728814 C 23.457627,5.2545085 18.203119,0 11.728814,0 Z m 0,21.111864 c -5.1724072,0 -9.3830513,-4.210644 -9.3830513,-9.383051 0,-5.1724062 4.2106441,-9.3830503 9.3830513,-9.3830503 5.172406,0 9.38305,4.2106441 9.38305,9.3830503 0,5.172407 -4.210644,9.383051 -9.38305,9.383051 z m 0,-16.4203386 c -2.592068,0 -4.6915259,2.0994576 -4.6915259,4.6915254 H 9.383051 c 0,-1.2901695 1.055593,-2.3457627 2.345763,-2.3457627 1.290169,0 2.345762,1.0555932 2.345762,2.3457627 0,2.3457622 -3.518644,2.0525422 -3.518644,5.8644072 h 2.345763 c 0,-2.638984 3.518644,-2.932204 3.518644,-5.8644072 0,-2.5920678 -2.099458,-4.6915254 -4.691525,-4.6915254 z"
     id="path4"
     inkscape:connector-curvature="0"
     style="stroke-width:1.17288136" />
</svg>
